<mxfile host="app.diagrams.net" modified="2022-11-26T19:56:18.314Z" agent="5.0 (Windows NT 10.0; Win64; x64) AppleWebKit/537.36 (KHTML, like Gecko) Chrome/107.0.0.0 Safari/537.36 Edg/107.0.1418.56" etag="QXQI0-5P5YFqR3-K7ZrT" version="20.6.0" type="gitlab">
  <diagram id="sYHyCNx4WKxojQXzPekd" name="Page-1">
    <mxGraphModel dx="460" dy="776" grid="1" gridSize="10" guides="1" tooltips="1" connect="1" arrows="1" fold="1" page="1" pageScale="1" pageWidth="827" pageHeight="1169" math="0" shadow="0">
      <root>
        <mxCell id="0" />
        <mxCell id="1" parent="0" />
        <mxCell id="pj0DbOwcFsnZvKkg855B-3" value="Calcul de la surcharge océanique" style="swimlane;whiteSpace=wrap;html=1;fillColor=#FFFFFF;" parent="1" vertex="1">
          <mxGeometry x="130" y="40" width="400" height="780" as="geometry" />
        </mxCell>
        <mxCell id="pj0DbOwcFsnZvKkg855B-7" value="Le fichier BLQ.blq" style="ellipse;whiteSpace=wrap;html=1;" parent="pj0DbOwcFsnZvKkg855B-3" vertex="1">
          <mxGeometry x="250" y="40" width="100" height="60" as="geometry" />
        </mxCell>
        <mxCell id="pj0DbOwcFsnZvKkg855B-8" value="La corrélation de distance en km" style="ellipse;whiteSpace=wrap;html=1;" parent="pj0DbOwcFsnZvKkg855B-3" vertex="1">
          <mxGeometry x="250" y="200" width="100" height="70" as="geometry" />
        </mxCell>
        <mxCell id="pj0DbOwcFsnZvKkg855B-9" value="La longitude et la latitude origine en radian" style="ellipse;whiteSpace=wrap;html=1;" parent="pj0DbOwcFsnZvKkg855B-3" vertex="1">
          <mxGeometry x="245" y="280" width="110" height="80" as="geometry" />
        </mxCell>
        <mxCell id="pj0DbOwcFsnZvKkg855B-12" value="La date du jour que l&#39;on veut le résultat" style="ellipse;whiteSpace=wrap;html=1;" parent="pj0DbOwcFsnZvKkg855B-3" vertex="1">
          <mxGeometry x="250" y="475" width="100" height="70" as="geometry" />
        </mxCell>
        <mxCell id="pj0DbOwcFsnZvKkg855B-13" value="Comparer deux données" style="ellipse;whiteSpace=wrap;html=1;fillColor=#FFCC99;" parent="pj0DbOwcFsnZvKkg855B-3" vertex="1">
          <mxGeometry x="60" y="680" width="100" height="70" as="geometry" />
        </mxCell>
        <mxCell id="pj0DbOwcFsnZvKkg855B-10" value="Les chemins de sortie des paramètres en .txt" style="ellipse;whiteSpace=wrap;html=1;" parent="pj0DbOwcFsnZvKkg855B-3" vertex="1">
          <mxGeometry x="242.5" y="110" width="115" height="80" as="geometry" />
        </mxCell>
        <mxCell id="pj0DbOwcFsnZvKkg855B-11" value="La longitude et la latitude du point que l&#39;on veut déterminer ça surcharge océanique" style="ellipse;whiteSpace=wrap;html=1;" parent="pj0DbOwcFsnZvKkg855B-3" vertex="1">
          <mxGeometry x="210" y="370" width="180" height="90" as="geometry" />
        </mxCell>
        <mxCell id="pj0DbOwcFsnZvKkg855B-20" value="Ajouter des parametres" style="ellipse;whiteSpace=wrap;html=1;fillColor=#FFFFFF;" parent="pj0DbOwcFsnZvKkg855B-3" vertex="1">
          <mxGeometry x="50" y="250" width="120" height="80" as="geometry" />
        </mxCell>
        <mxCell id="pj0DbOwcFsnZvKkg855B-24" value="" style="endArrow=none;dashed=1;html=1;rounded=0;labelBackgroundColor=default;strokeColor=default;fontFamily=Helvetica;fontSize=11;fontColor=default;shape=connector;exitX=0.5;exitY=0;exitDx=0;exitDy=0;entryX=0;entryY=0.5;entryDx=0;entryDy=0;" parent="pj0DbOwcFsnZvKkg855B-3" source="pj0DbOwcFsnZvKkg855B-20" target="pj0DbOwcFsnZvKkg855B-10" edge="1">
          <mxGeometry width="50" height="50" relative="1" as="geometry">
            <mxPoint x="120" y="420" as="sourcePoint" />
            <mxPoint x="240" y="150" as="targetPoint" />
            <Array as="points">
              <mxPoint x="110" y="150" />
            </Array>
          </mxGeometry>
        </mxCell>
        <mxCell id="pj0DbOwcFsnZvKkg855B-30" value="" style="endArrow=none;dashed=1;html=1;rounded=0;labelBackgroundColor=default;strokeColor=default;fontFamily=Helvetica;fontSize=11;fontColor=default;shape=connector;entryX=0;entryY=0.5;entryDx=0;entryDy=0;exitX=0.5;exitY=0;exitDx=0;exitDy=0;startArrow=none;" parent="pj0DbOwcFsnZvKkg855B-3" source="pj0DbOwcFsnZvKkg855B-29" target="pj0DbOwcFsnZvKkg855B-7" edge="1">
          <mxGeometry width="50" height="50" relative="1" as="geometry">
            <mxPoint x="170" y="290" as="sourcePoint" />
            <mxPoint x="290" y="200" as="targetPoint" />
            <Array as="points">
              <mxPoint x="110" y="70" />
            </Array>
          </mxGeometry>
        </mxCell>
        <mxCell id="pj0DbOwcFsnZvKkg855B-25" value="" style="endArrow=none;dashed=1;html=1;rounded=0;labelBackgroundColor=default;strokeColor=default;fontFamily=Helvetica;fontSize=11;fontColor=default;shape=connector;entryX=0;entryY=0.5;entryDx=0;entryDy=0;exitX=0.5;exitY=0;exitDx=0;exitDy=0;" parent="pj0DbOwcFsnZvKkg855B-3" source="pj0DbOwcFsnZvKkg855B-20" target="pj0DbOwcFsnZvKkg855B-8" edge="1">
          <mxGeometry width="50" height="50" relative="1" as="geometry">
            <mxPoint x="170" y="290" as="sourcePoint" />
            <mxPoint x="250" y="160" as="targetPoint" />
            <Array as="points">
              <mxPoint x="110" y="235" />
            </Array>
          </mxGeometry>
        </mxCell>
        <mxCell id="pj0DbOwcFsnZvKkg855B-29" value="&amp;lt;&amp;lt;include&amp;gt;&amp;gt;" style="text;html=1;strokeColor=none;fillColor=none;align=center;verticalAlign=middle;whiteSpace=wrap;rounded=0;fontFamily=Helvetica;fontSize=11;fontColor=default;" parent="pj0DbOwcFsnZvKkg855B-3" vertex="1">
          <mxGeometry x="80" y="210" width="60" height="30" as="geometry" />
        </mxCell>
        <mxCell id="pj0DbOwcFsnZvKkg855B-28" value="" style="endArrow=none;dashed=1;html=1;rounded=0;labelBackgroundColor=default;strokeColor=default;fontFamily=Helvetica;fontSize=11;fontColor=default;shape=connector;entryX=0;entryY=0.5;entryDx=0;entryDy=0;exitX=0.5;exitY=1;exitDx=0;exitDy=0;" parent="pj0DbOwcFsnZvKkg855B-3" source="pj0DbOwcFsnZvKkg855B-20" target="pj0DbOwcFsnZvKkg855B-12" edge="1">
          <mxGeometry width="50" height="50" relative="1" as="geometry">
            <mxPoint x="170" y="290" as="sourcePoint" />
            <mxPoint x="280" y="190" as="targetPoint" />
            <Array as="points">
              <mxPoint x="110" y="510" />
            </Array>
          </mxGeometry>
        </mxCell>
        <mxCell id="pj0DbOwcFsnZvKkg855B-27" value="" style="endArrow=none;dashed=1;html=1;rounded=0;labelBackgroundColor=default;strokeColor=default;fontFamily=Helvetica;fontSize=11;fontColor=default;shape=connector;entryX=0;entryY=0.5;entryDx=0;entryDy=0;exitX=0.5;exitY=1;exitDx=0;exitDy=0;startArrow=none;" parent="pj0DbOwcFsnZvKkg855B-3" source="pj0DbOwcFsnZvKkg855B-32" target="pj0DbOwcFsnZvKkg855B-11" edge="1">
          <mxGeometry width="50" height="50" relative="1" as="geometry">
            <mxPoint x="170" y="290" as="sourcePoint" />
            <mxPoint x="270" y="180" as="targetPoint" />
            <Array as="points">
              <mxPoint x="110" y="415" />
            </Array>
          </mxGeometry>
        </mxCell>
        <mxCell id="pj0DbOwcFsnZvKkg855B-26" value="" style="endArrow=none;dashed=1;html=1;rounded=0;labelBackgroundColor=default;strokeColor=default;fontFamily=Helvetica;fontSize=11;fontColor=default;shape=connector;entryX=0;entryY=0.5;entryDx=0;entryDy=0;exitX=1;exitY=1;exitDx=0;exitDy=0;" parent="pj0DbOwcFsnZvKkg855B-3" source="pj0DbOwcFsnZvKkg855B-20" target="pj0DbOwcFsnZvKkg855B-9" edge="1">
          <mxGeometry width="50" height="50" relative="1" as="geometry">
            <mxPoint x="170" y="290" as="sourcePoint" />
            <mxPoint x="260" y="170" as="targetPoint" />
            <Array as="points">
              <mxPoint x="200" y="320" />
            </Array>
          </mxGeometry>
        </mxCell>
        <mxCell id="pj0DbOwcFsnZvKkg855B-32" value="&amp;lt;&amp;lt;include&amp;gt;&amp;gt;" style="text;html=1;strokeColor=none;fillColor=none;align=center;verticalAlign=middle;whiteSpace=wrap;rounded=0;fontFamily=Helvetica;fontSize=11;fontColor=default;" parent="pj0DbOwcFsnZvKkg855B-3" vertex="1">
          <mxGeometry x="80" y="340" width="60" height="30" as="geometry" />
        </mxCell>
        <mxCell id="pj0DbOwcFsnZvKkg855B-34" value="&amp;lt;&amp;lt;include&amp;gt;&amp;gt;" style="text;html=1;strokeColor=none;fillColor=none;align=center;verticalAlign=middle;whiteSpace=wrap;rounded=0;fontFamily=Helvetica;fontSize=11;fontColor=default;" parent="pj0DbOwcFsnZvKkg855B-3" vertex="1">
          <mxGeometry x="170" y="300" width="60" height="30" as="geometry" />
        </mxCell>
        <mxCell id="klOkSnwJqf_E_e4HyKWz-1" value="Ajouter ou supprimer des points du fichiers BLQ.blq" style="ellipse;whiteSpace=wrap;html=1;fillColor=#99CCFF;" parent="pj0DbOwcFsnZvKkg855B-3" vertex="1">
          <mxGeometry x="225" y="580" width="150" height="80" as="geometry" />
        </mxCell>
        <mxCell id="klOkSnwJqf_E_e4HyKWz-4" value="&amp;lt;extend&amp;gt;" style="endArrow=none;dashed=1;html=1;strokeWidth=1;rounded=0;entryX=0;entryY=0.5;entryDx=0;entryDy=0;exitX=0;exitY=1;exitDx=0;exitDy=0;" parent="pj0DbOwcFsnZvKkg855B-3" source="pj0DbOwcFsnZvKkg855B-20" target="klOkSnwJqf_E_e4HyKWz-1" edge="1">
          <mxGeometry width="50" height="50" relative="1" as="geometry">
            <mxPoint x="260" y="430" as="sourcePoint" />
            <mxPoint x="310" y="380" as="targetPoint" />
            <Array as="points">
              <mxPoint x="68" y="620" />
            </Array>
          </mxGeometry>
        </mxCell>
        <mxCell id="pj0DbOwcFsnZvKkg855B-21" style="edgeStyle=orthogonalEdgeStyle;rounded=0;orthogonalLoop=1;jettySize=auto;html=1;entryX=0;entryY=0.5;entryDx=0;entryDy=0;" parent="1" source="pj0DbOwcFsnZvKkg855B-4" target="pj0DbOwcFsnZvKkg855B-20" edge="1">
          <mxGeometry relative="1" as="geometry" />
        </mxCell>
        <mxCell id="pj0DbOwcFsnZvKkg855B-22" style="edgeStyle=orthogonalEdgeStyle;rounded=0;orthogonalLoop=1;jettySize=auto;html=1;entryX=0;entryY=0.5;entryDx=0;entryDy=0;" parent="1" source="pj0DbOwcFsnZvKkg855B-4" target="pj0DbOwcFsnZvKkg855B-13" edge="1">
          <mxGeometry relative="1" as="geometry">
            <Array as="points">
              <mxPoint x="120" y="330" />
              <mxPoint x="120" y="755" />
            </Array>
          </mxGeometry>
        </mxCell>
        <mxCell id="pj0DbOwcFsnZvKkg855B-4" value="Actor" style="shape=umlActor;verticalLabelPosition=bottom;verticalAlign=top;html=1;outlineConnect=0;" parent="1" vertex="1">
          <mxGeometry x="60" y="300" width="30" height="60" as="geometry" />
        </mxCell>
      </root>
    </mxGraphModel>
  </diagram>
</mxfile>
